<svg width="643" height="643" viewBox="0 0 643 643" fill="none" xmlns="http://www.w3.org/2000/svg">
<g clip-path="url(#clip0)">
<rect width="643" height="643" fill="white"/>
<path d="M-164 -50H693V763H-164V-50Z" fill="url(#paint0_linear)"/>
<path d="M187.28 330.743C189.713 328.311 193.013 326.945 196.453 326.945H513.85C519.632 326.945 522.527 333.937 518.436 338.024L455.719 400.691C453.286 403.123 449.987 404.488 446.547 404.488H129.149C123.367 404.488 120.473 397.497 124.563 393.41L187.28 330.743Z" fill="white"/>
<path d="M187.28 96.622C189.713 94.1905 193.013 92.8247 196.453 92.8247H513.85C519.632 92.8247 522.527 99.8165 518.436 103.903L455.719 166.571C453.286 169.002 449.987 170.368 446.547 170.368H129.149C123.367 170.368 120.473 163.376 124.563 159.289L187.28 96.622Z" fill="white"/>
<path d="M455.719 212.937C453.286 210.505 449.987 209.139 446.547 209.139H129.149C123.367 209.139 120.473 216.131 124.563 220.218L187.28 282.885C189.713 285.317 193.013 286.682 196.453 286.682H513.85C519.632 286.682 522.527 279.691 518.436 275.604L455.719 212.937Z" fill="white"/>
<path d="M138.831 528.631H160.555C163.607 528.631 166.08 531.139 166.08 534.232C166.08 537.326 163.607 539.834 160.555 539.834H134.352C133.943 539.834 133.548 539.982 133.237 540.252L125.325 547.114C124.114 548.164 124.847 550.175 126.441 550.175H159.243C159.256 550.175 159.267 550.164 159.267 550.15C159.267 550.136 159.28 550.124 159.294 550.125C159.706 550.158 160.124 550.175 160.545 550.175C169.246 550.175 176.3 543.037 176.3 534.232C176.3 525.871 169.939 519.013 161.847 518.344C161.833 518.342 161.822 518.331 161.822 518.317C161.822 518.302 161.81 518.29 161.796 518.29H138.392C135.341 518.29 132.867 515.782 132.867 512.689C132.867 509.595 135.341 507.087 138.392 507.087H164.559C164.99 507.087 165.405 506.923 165.721 506.627L173.068 499.765C174.217 498.691 173.468 496.746 171.905 496.746H138.831C138.83 496.746 138.828 496.747 138.828 496.749C138.828 496.75 138.827 496.752 138.825 496.752C138.685 496.748 138.544 496.746 138.403 496.746C129.701 496.746 122.647 503.884 122.647 512.689C122.647 521.493 129.701 528.631 138.403 528.631C138.544 528.631 138.685 528.629 138.825 528.625C138.827 528.625 138.828 528.627 138.828 528.628C138.828 528.63 138.83 528.631 138.831 528.631Z" fill="white"/>
<path d="M265.36 496.746C264.41 496.746 263.64 497.525 263.64 498.486V548.435C263.64 549.396 264.41 550.175 265.36 550.175H305.139C305.614 550.175 306.068 549.976 306.393 549.625L311.373 544.253C312.402 543.142 311.624 541.323 310.118 541.323H275.386C274.436 541.323 273.666 540.544 273.666 539.584V498.486C273.666 497.525 272.896 496.746 271.947 496.746H265.36Z" fill="white"/>
<path fill-rule="evenodd" clip-rule="evenodd" d="M201.647 496.746C201.644 496.746 201.642 496.748 201.642 496.751C201.642 496.753 201.64 496.755 201.638 496.755C196.554 496.977 192.471 501.094 192.251 506.221C192.251 506.223 192.249 506.225 192.246 506.225C192.245 506.225 192.244 506.226 192.243 506.227C192.242 506.228 192.242 506.229 192.242 506.23V539.829C192.242 539.832 192.244 539.834 192.246 539.834C192.249 539.834 192.251 539.836 192.251 539.839C192.245 539.98 192.242 540.122 192.242 540.265C192.242 545.592 196.41 549.938 201.638 550.166C201.64 550.166 201.642 550.168 201.642 550.17L201.643 550.172L201.644 550.174C201.645 550.174 201.646 550.175 201.647 550.175H237.742C237.745 550.175 237.747 550.173 237.747 550.17L237.747 550.168L237.749 550.166L237.751 550.166C242.979 549.938 247.147 545.592 247.147 540.265C247.147 540.122 247.144 539.98 247.138 539.839C247.138 539.836 247.14 539.834 247.143 539.834C247.145 539.834 247.147 539.832 247.147 539.829V506.23C247.147 506.228 247.145 506.225 247.143 506.225C247.14 506.225 247.138 506.223 247.138 506.221C246.918 501.094 242.835 496.977 237.751 496.755C237.749 496.755 237.747 496.753 237.747 496.751C237.747 496.748 237.745 496.746 237.742 496.746H201.647ZM208.375 506.225L208.373 506.227L208.372 506.228C208.372 506.23 208.371 506.231 208.369 506.231C205.192 506.371 202.64 508.96 202.503 512.185C202.503 512.187 202.501 512.188 202.5 512.188C202.498 512.188 202.497 512.19 202.497 512.191V533.326C202.497 533.328 202.498 533.329 202.5 533.329C202.501 533.329 202.503 533.33 202.503 533.332C202.499 533.421 202.497 533.51 202.497 533.6C202.497 536.951 205.102 539.685 208.369 539.828C208.371 539.828 208.372 539.829 208.372 539.831L208.373 539.833L208.374 539.833L208.375 539.834H231.014L231.015 539.834L231.016 539.832L231.017 539.831C231.017 539.829 231.018 539.828 231.02 539.828C234.287 539.685 236.892 536.951 236.892 533.6C236.892 533.51 236.89 533.421 236.887 533.332L236.887 533.331L236.887 533.33L236.889 533.329C236.891 533.329 236.892 533.328 236.892 533.326V512.191C236.892 512.19 236.891 512.188 236.889 512.188C236.888 512.188 236.886 512.187 236.886 512.185C236.749 508.96 234.197 506.371 231.02 506.231C231.018 506.231 231.017 506.23 231.017 506.228L231.016 506.227L231.015 506.226L231.014 506.225H208.375Z" fill="white"/>
<path fill-rule="evenodd" clip-rule="evenodd" d="M369.216 548.435C369.216 549.396 369.98 550.175 370.922 550.175H377.669C378.61 550.175 379.374 549.396 379.374 548.435V507.092C379.374 507.089 379.372 507.087 379.37 507.087L379.367 507.087L379.367 507.086C379.366 507.085 379.365 507.084 379.365 507.082C379.371 506.941 379.374 506.799 379.374 506.656C379.374 501.329 375.245 496.983 370.067 496.755C370.065 496.755 370.063 496.753 370.063 496.751C370.063 496.748 370.061 496.746 370.058 496.746H335.406C335.404 496.746 335.402 496.748 335.402 496.751C335.402 496.753 335.399 496.755 335.397 496.755C335.258 496.749 335.119 496.746 334.978 496.746C329.602 496.746 325.244 501.183 325.244 506.656C325.244 506.799 325.247 506.941 325.253 507.082C325.253 507.085 325.251 507.087 325.248 507.087C325.246 507.087 325.244 507.089 325.244 507.092V548.435C325.244 549.396 326.008 550.175 326.949 550.175H333.696C334.638 550.175 335.402 549.396 335.402 548.435V531.232C335.402 530.272 336.165 529.493 337.107 529.493H367.511C368.453 529.493 369.216 530.272 369.216 531.232V548.435ZM335.402 519.997V511.396C335.402 508.064 338.054 505.364 341.327 505.364H363.291C366.564 505.364 369.217 508.064 369.217 511.396V519.997C369.217 520.958 368.453 521.737 367.511 521.737H337.107C336.165 521.737 335.402 520.958 335.402 519.997Z" fill="white"/>
<path fill-rule="evenodd" clip-rule="evenodd" d="M511.624 550.175C510.673 550.175 509.903 549.396 509.903 548.435V531.232C509.903 530.272 509.132 529.493 508.181 529.493H477.441C476.49 529.493 475.719 530.272 475.719 531.232V548.435C475.719 549.396 474.948 550.175 473.997 550.175H467.185C466.234 550.175 465.464 549.396 465.464 548.435V507.092L465.464 507.09L465.464 507.089C465.465 507.088 465.467 507.087 465.468 507.087C465.471 507.087 465.473 507.085 465.473 507.082C465.467 506.941 465.464 506.799 465.464 506.656C465.464 501.183 469.864 496.746 475.291 496.746C475.433 496.746 475.574 496.749 475.714 496.755C475.717 496.755 475.719 496.753 475.719 496.751C475.719 496.748 475.721 496.746 475.723 496.746L510.753 496.746C510.755 496.746 510.757 496.748 510.757 496.751C510.757 496.753 510.759 496.755 510.762 496.755C515.989 496.983 520.158 501.329 520.158 506.656C520.158 506.799 520.155 506.941 520.149 507.082C520.149 507.085 520.151 507.087 520.153 507.087C520.155 507.087 520.156 507.088 520.156 507.089C520.157 507.089 520.158 507.09 520.158 507.092V548.435C520.158 549.396 519.387 550.175 518.436 550.175H511.624ZM475.719 511.396V519.997C475.719 520.958 476.49 521.737 477.441 521.737H508.181C509.132 521.737 509.903 520.958 509.903 519.997V511.396C509.903 508.064 507.224 505.364 503.92 505.364H481.701C478.397 505.364 475.719 508.064 475.719 511.396Z" fill="white"/>
<path d="M404.768 496.746C405.267 496.746 405.741 496.969 406.065 497.357L436.322 533.65C437.351 534.881 439.325 534.139 439.325 532.521V498.486C439.325 497.525 440.089 496.746 441.031 496.746H447.777C448.719 496.746 449.483 497.525 449.483 498.486V548.435C449.483 549.396 448.719 550.175 447.777 550.175H439.389C439.354 550.175 439.325 550.146 439.325 550.11C439.325 550.094 439.32 550.079 439.309 550.067L408.545 514.027C407.508 512.816 405.555 513.564 405.555 515.171V548.435C405.555 549.396 404.791 550.175 403.849 550.175H397.059C396.117 550.175 395.354 549.396 395.354 548.435V498.486C395.354 497.525 396.117 496.746 397.059 496.746H404.768Z" fill="white"/>
</g>
<defs>
<linearGradient id="paint0_linear" x1="564.45" y1="-27.0607" x2="112.097" y2="718.469" gradientUnits="userSpaceOnUse">
<stop stop-color="#00FFA3"/>
<stop offset="1" stop-color="#DC1FFF"/>
</linearGradient>
<clipPath id="clip0">
<rect width="643" height="643" fill="white"/>
</clipPath>
</defs>
</svg>
